<svg version="1.1" id="Layer_1" xmlns="http://www.w3.org/2000/svg" xmlns:xlink="http://www.w3.org/1999/xlink" x="0px" y="0px"
	 width="100%" viewBox="0 0 512 512" enable-background="new 0 0 512 512" xml:space="preserve">
<path fill="#FFFFFF" opacity="1.000000" stroke="none" 
	d="
M513.000000,76.000000 
	C513.000000,195.022644 513.000000,314.045288 512.638550,433.441833 
	C512.026123,433.666351 511.760315,433.383514 511.528809,433.409241 
	C511.338562,433.430359 511.057953,433.807983 511.040100,434.044373 
	C509.944214,448.563690 503.501282,461.084656 494.763550,472.048035 
	C487.940552,480.608978 479.576477,488.113983 471.098511,495.122009 
	C465.622650,499.648438 458.852448,502.731781 452.386078,505.897614 
	C447.404388,508.336578 441.991180,509.893402 436.789337,511.893188 
	C436.726959,511.917206 436.924042,512.616150 437.000000,513.000000 
	C315.977356,513.000000 194.954727,513.000000 73.761383,512.668213 
	C70.928070,510.544708 68.426079,508.405182 65.549431,507.077118 
	C63.443199,506.104767 60.623405,506.689026 58.503883,505.732513 
	C48.867916,501.383942 40.216892,495.480072 32.638489,488.087036 
	C31.023289,486.511353 29.806524,484.535614 28.302458,482.836029 
	C24.237240,478.242371 19.290243,474.190369 16.209017,469.020081 
	C11.480052,461.084930 8.070428,452.368744 3.963366,444.051941 
	C3.365826,442.841888 2.006706,442.007965 0.999997,441.000000 
	C1.000000,319.644043 1.000000,198.288055 1.397626,76.461746 
	C4.858121,69.607147 7.946005,63.234730 10.974288,56.834118 
	C12.733324,53.116199 13.620591,48.655090 16.244478,45.737358 
	C25.113821,35.874733 33.766953,25.517721 44.093376,17.364260 
	C51.775818,11.298411 61.946815,8.402178 70.945213,3.964014 
	C72.156189,3.366740 72.991005,2.006787 74.000000,1.000000 
	C195.022644,1.000000 316.045288,1.000000 437.224060,1.322971 
	C439.128296,2.765660 440.737396,4.304662 442.646820,4.937459 
	C455.629364,9.239841 467.566284,15.500985 477.874420,24.455645 
	C492.994751,37.590691 504.002289,53.592548 510.095856,72.833946 
	C510.487854,74.071732 512.005798,74.952927 513.000000,76.000000 
M138.853470,293.083984 
	C127.262932,292.946320 115.672470,292.795227 104.081512,292.726013 
	C103.670799,292.723541 103.255234,293.532501 102.387276,294.505280 
	C102.062660,296.195679 101.738037,297.886108 101.308495,300.122864 
	C106.050827,300.122864 110.102493,300.122864 114.541542,300.122864 
	C111.656631,313.602600 108.881226,326.570679 106.042572,339.834259 
	C109.384369,339.834259 112.478844,339.834259 115.765968,339.834259 
	C118.685921,326.475128 121.580170,313.233551 124.533401,299.722168 
	C129.246780,299.722168 133.509933,299.722168 137.890686,299.722168 
	C138.225510,297.925171 138.496704,296.469696 138.997375,294.533539 
	C138.975449,294.357391 138.953537,294.181244 138.853470,293.083984 
M446.489441,323.303314 
	C447.560272,316.865784 447.980835,310.509735 441.555878,306.379028 
	C435.338989,302.382111 425.902588,303.785095 419.884155,309.282776 
	C413.420410,315.187256 410.908356,325.854065 414.301819,332.986816 
	C417.132751,338.937195 424.563812,341.886505 433.281372,340.519226 
	C434.264191,340.365082 435.241638,340.155334 436.230133,340.062408 
	C440.704224,339.641785 442.204498,337.333313 440.779083,332.752441 
	C438.769287,333.160431 436.891296,333.696228 434.978821,333.888702 
	C432.845764,334.103363 430.651917,334.250183 428.536377,333.995697 
	C423.459381,333.384918 421.415680,330.450745 422.937622,325.145996 
	C429.962585,325.093567 436.987549,325.041168 444.482941,325.171875 
	C444.642059,325.117188 444.801178,325.062500 445.590393,325.069702 
	C445.752960,324.715515 445.915558,324.361328 446.489441,323.303314 
M408.489594,323.303406 
	C409.562805,316.865173 409.979401,310.509949 403.555939,306.379242 
	C397.338654,302.381226 387.898712,303.784973 381.884064,309.282745 
	C375.422546,315.188965 372.910126,325.860565 376.302948,332.988647 
	C379.135223,338.939056 386.564453,341.886566 395.283630,340.518677 
	C396.266479,340.364532 397.243927,340.154236 398.232483,340.062225 
	C402.710846,339.645447 404.202576,337.332581 402.919464,333.204193 
	C398.663757,333.492981 394.571991,334.191223 390.539886,333.938263 
	C385.452423,333.619049 383.437439,330.480408 384.937622,325.145996 
	C391.962585,325.093597 398.987579,325.041168 406.482910,325.171875 
	C406.642029,325.117157 406.801147,325.062469 407.590363,325.069702 
	C407.752960,324.715515 407.915558,324.361359 408.489594,323.303406 
M253.797943,306.812225 
	C253.797943,306.812225 253.428345,306.508057 253.261505,305.818970 
	C250.517197,305.439636 247.772888,305.060303 244.955765,304.670898 
	C242.368423,316.887817 239.947845,328.317291 237.498810,339.881134 
	C240.833801,339.881134 243.441101,339.881134 246.349899,339.881134 
	C247.634445,333.925262 248.572739,328.006866 250.266846,322.313354 
	C251.269470,318.943695 252.937042,315.414886 255.329941,312.953430 
	C256.704590,311.539398 260.421448,311.310089 262.519196,312.082092 
	C263.877930,312.582123 264.536041,315.797882 264.905945,317.902588 
	C265.176727,319.443512 264.506622,321.163940 264.189514,322.791443 
	C263.092926,328.419220 261.967316,334.041321 260.821289,339.824402 
	C264.072968,339.824402 266.832367,339.824402 269.933594,339.824402 
	C271.418640,331.816772 273.381805,324.052032 274.180634,316.169312 
	C275.067963,307.413025 268.084137,302.276428 259.565216,304.779663 
	C257.686829,305.331665 255.944351,306.346191 253.797943,306.812225 
M303.131256,337.107452 
	C303.282471,337.232788 303.433655,337.358093 303.683502,338.220245 
	C306.186188,339.066254 308.688873,339.912292 311.227203,340.770355 
	C315.105316,322.799103 318.708740,306.100769 322.368713,289.140320 
	C319.240448,289.140320 316.493500,289.140320 313.511871,289.140320 
	C312.781281,292.355896 312.087250,295.413239 311.391907,298.470306 
	C310.659973,301.688354 309.926819,304.906158 309.442932,307.031464 
	C304.497772,306.117126 299.850586,304.234589 295.422241,304.655304 
	C286.600555,305.493378 281.740814,313.089752 280.928955,324.929993 
	C280.519775,330.897186 281.262421,336.465912 287.069275,339.475922 
	C292.733582,342.412048 298.043701,340.767517 303.131256,337.107452 
M249.567612,267.902496 
	C254.364548,267.908142 259.262329,268.552368 263.941620,267.813202 
	C289.482758,263.778839 308.398163,241.160675 303.616699,212.346039 
	C300.493011,193.521942 288.848022,180.774979 270.607239,175.251770 
	C252.377411,169.731918 235.828979,174.043884 222.551926,187.760300 
	C209.853821,200.878632 205.979660,216.928940 211.261337,234.384293 
	C216.851593,252.859467 229.844772,263.821777 249.567612,267.902496 
M173.797745,313.019470 
	C174.638687,321.916168 175.479614,330.812866 176.310913,339.607635 
	C184.974991,340.762939 184.987152,340.769623 188.733826,333.939362 
	C192.410538,327.236664 196.048355,320.512634 199.724380,313.809570 
	C201.519196,310.536774 203.362091,307.290375 205.183212,304.032013 
	C204.969681,310.244690 203.689468,316.035614 202.394638,321.823303 
	C201.066284,327.760925 199.723648,333.695343 198.325455,339.905609 
	C201.779984,339.905609 204.738586,339.905609 208.276596,339.905609 
	C211.505478,324.253510 214.747269,308.538818 218.034119,292.605713 
	C200.304352,292.623596 203.949463,290.194427 195.775803,304.862732 
	C194.804779,306.605316 193.869766,308.367920 192.904144,310.113525 
	C190.003433,315.357269 187.095840,320.597260 183.575104,326.949860 
	C182.321701,314.555481 181.214310,303.604980 180.093460,292.521332 
	C175.433212,292.521332 171.599854,292.326416 167.806290,292.629578 
	C166.520004,292.732361 164.460220,293.897186 164.233780,294.908142 
	C160.902237,309.782013 157.820786,324.711884 154.672348,339.664398 
	C163.403503,340.598999 163.387634,340.595520 165.073868,332.875916 
	C167.157394,323.337433 169.270660,313.805420 171.371078,304.270630 
	C171.748703,304.223206 172.126328,304.175812 172.503952,304.128387 
	C172.927185,306.792847 173.350418,309.457275 173.797745,313.019470 
M93.240768,334.500458 
	C88.237335,334.121552 83.233910,333.742645 77.495621,333.308105 
	C80.344368,319.609619 83.122284,306.251740 85.908401,292.854431 
	C76.660240,292.014954 76.697281,292.022675 74.917755,300.575714 
	C72.720779,311.135223 70.440308,321.677307 68.228348,332.233734 
	C67.705650,334.728333 67.312469,337.250061 66.850372,339.811035 
	C76.468887,339.811035 85.538231,339.811035 95.429939,339.811035 
	C94.863243,337.830505 94.426712,336.304932 93.240768,334.500458 
M346.302979,310.968628 
	C346.989624,309.152496 347.676270,307.336395 348.494934,305.170990 
	C345.519592,304.985687 343.096832,304.834778 340.390472,304.666199 
	C340.903961,301.590668 341.376801,298.758545 341.860535,295.861176 
	C334.497101,295.869720 333.536530,296.669495 330.828644,304.675323 
	C328.790497,304.840088 326.692902,305.009644 324.322144,305.201294 
	C324.066498,307.330780 323.840546,309.212952 323.607758,311.152161 
	C325.855103,311.475281 327.589600,311.724670 329.532074,312.003967 
	C329.006561,314.465851 328.469818,316.553375 328.127228,318.672302 
	C327.361328,323.409973 326.157318,328.159943 326.127136,332.911194 
	C326.093933,338.135529 330.286438,341.101471 336.196503,340.812775 
	C340.514923,340.601837 342.652496,338.274536 342.235931,333.803162 
	C337.190582,335.811737 334.505890,333.948120 335.141846,328.680969 
	C335.558319,325.231537 336.816162,321.872467 337.113861,318.422546 
	C337.584717,312.966156 340.025513,310.409912 346.302979,310.968628 
M139.835938,315.169861 
	C138.133835,323.295410 136.431732,331.420929 134.675598,339.804443 
	C138.074020,339.804443 141.138809,339.804443 144.481216,339.804443 
	C147.757324,324.080811 150.987259,308.578705 154.234695,292.992645 
	C144.656601,291.963409 144.665039,291.965149 142.958679,300.169708 
	C141.975861,304.895325 140.960526,309.614166 139.835938,315.169861 
M349.634064,329.885559 
	C348.972107,333.204132 348.310150,336.522736 347.641083,339.876953 
	C350.936859,339.876953 353.549957,339.876953 356.475861,339.876953 
	C357.473480,335.046112 358.405457,330.345367 359.419312,325.662354 
	C361.535522,315.887421 364.139404,313.536804 374.113098,312.494354 
	C374.661072,310.024323 375.227722,307.470093 375.817261,304.812592 
	C370.127075,302.699036 366.632416,306.622223 362.141724,309.534698 
	C362.416321,307.572449 362.587128,306.351990 362.764343,305.085571 
	C359.902466,305.085571 357.440735,305.085571 354.684326,305.085571 
	C353.032715,313.146118 351.403229,321.098572 349.634064,329.885559 
M232.869476,314.489990 
	C233.467163,311.453217 234.064835,308.416443 234.713516,305.120544 
	C231.627213,305.120544 228.869751,305.120544 225.857788,305.120544 
	C223.391434,316.701050 220.953415,328.148590 218.471725,339.801147 
	C221.739044,339.801147 224.458313,339.801147 227.392624,339.801147 
	C229.181320,331.483704 230.921173,323.393463 232.869476,314.489990 
M235.818970,290.881195 
	C233.694244,290.881195 231.569519,290.881195 229.103714,290.881195 
	C228.545395,293.325928 228.027023,295.595734 227.487549,297.957977 
	C237.416290,298.726379 238.062073,298.197388 235.818970,290.881195 
z"/>
<path fill="#000000" opacity="1.000000" stroke="none" 
	d="
M513.000000,75.531342 
	C512.005798,74.952927 510.487854,74.071732 510.095856,72.833946 
	C504.002289,53.592548 492.994751,37.590691 477.874420,24.455645 
	C467.566284,15.500985 455.629364,9.239841 442.646820,4.937459 
	C440.737396,4.304662 439.128296,2.765660 437.690125,1.322971 
	C462.926849,1.000000 487.853729,1.000000 513.000000,1.000000 
	C513.000000,25.687128 513.000000,50.374905 513.000000,75.531342 
z"/>
<path fill="#000000" opacity="1.000000" stroke="none" 
	d="
M437.468658,513.000000 
	C436.924042,512.616150 436.726959,511.917206 436.789337,511.893188 
	C441.991180,509.893402 447.404388,508.336578 452.386078,505.897614 
	C458.852448,502.731781 465.622650,499.648438 471.098511,495.122009 
	C479.576477,488.113983 487.940552,480.608978 494.763550,472.048035 
	C503.501282,461.084656 509.944214,448.563690 511.040100,434.044373 
	C511.057953,433.807983 511.338562,433.430359 511.528809,433.409241 
	C511.760315,433.383514 512.026123,433.666351 512.638550,433.907837 
	C513.000000,460.258789 513.000000,486.517578 513.000000,513.000000 
	C487.979553,513.000000 462.958435,513.000000 437.468658,513.000000 
z"/>
<path fill="#000000" opacity="1.000000" stroke="none" 
	d="
M73.531342,1.000000 
	C72.991005,2.006787 72.156189,3.366740 70.945213,3.964014 
	C61.946815,8.402178 51.775818,11.298411 44.093376,17.364260 
	C33.766953,25.517721 25.113821,35.874733 16.244478,45.737358 
	C13.620591,48.655090 12.733324,53.116199 10.974288,56.834118 
	C7.946005,63.234730 4.858121,69.607147 1.397626,75.995697 
	C1.000000,51.074116 1.000000,26.148233 1.000000,1.000000 
	C25.020437,1.000000 49.041561,1.000000 73.531342,1.000000 
z"/>
<path fill="#000000" opacity="1.000000" stroke="none" 
	d="
M0.999997,441.468658 
	C2.006706,442.007965 3.365826,442.841888 3.963366,444.051941 
	C8.070428,452.368744 11.480052,461.084930 16.209017,469.020081 
	C19.290243,474.190369 24.237240,478.242371 28.302458,482.836029 
	C29.806524,484.535614 31.023289,486.511353 32.638489,488.087036 
	C40.216892,495.480072 48.867916,501.383942 58.503883,505.732513 
	C60.623405,506.689026 63.443199,506.104767 65.549431,507.077118 
	C68.426079,508.405182 70.928070,510.544708 73.295341,512.668213 
	C49.073139,513.000000 25.146275,513.000000 1.000000,513.000000 
	C1.000000,489.312897 1.000000,465.625092 0.999997,441.468658 
z"/>
<path fill="#0F4B89" opacity="1.000000" stroke="none" 
	d="
M249.147537,267.844208 
	C229.844772,263.821777 216.851593,252.859467 211.261337,234.384293 
	C205.979660,216.928940 209.853821,200.878632 222.551926,187.760300 
	C235.828979,174.043884 252.377411,169.731918 270.607239,175.251770 
	C288.848022,180.774979 300.493011,193.521942 303.616699,212.346039 
	C308.398163,241.160675 289.482758,263.778839 263.941620,267.813202 
	C259.262329,268.552368 254.364548,267.908142 249.147537,267.844208 
M266.596863,216.599548 
	C271.698059,216.731400 276.801697,217.020721 281.899689,216.942459 
	C285.602417,216.885605 289.297668,216.342575 293.002136,215.539383 
	C293.002136,215.539383 292.994110,215.062469 293.773956,214.874893 
	C294.234650,215.170395 295.132874,215.558395 295.092804,215.748047 
	C293.629547,222.670227 288.914917,226.183121 281.566925,226.601013 
	C279.625336,226.711426 276.934174,227.820923 276.009460,229.338364 
	C269.868530,239.415451 264.096893,249.718292 258.261841,259.979950 
	C257.685486,260.993561 257.491486,262.224579 256.998840,263.723297 
	C259.575836,263.066986 261.416534,262.455414 263.306671,262.138428 
	C287.507843,258.079681 303.254242,234.652618 297.634399,211.011566 
	C293.187164,192.303497 275.556976,178.636795 256.353119,178.848679 
	C253.193756,178.883545 251.265610,179.856064 249.687607,182.784134 
	C245.350967,190.831070 240.565613,198.634857 236.067734,206.596954 
	C234.547424,209.288193 233.356384,212.165451 232.173203,215.761734 
	C233.659927,216.176483 235.139145,216.914795 236.634674,216.949417 
	C242.778915,217.091690 248.928101,217.019882 254.999405,217.719376 
	C253.461914,220.228592 251.924408,222.737808 250.094376,224.573517 
	C249.412003,224.333908 248.731461,223.891525 248.046967,223.885300 
	C238.589447,223.799377 229.131378,223.773392 219.849075,223.050690 
	C227.705475,209.359100 235.561859,195.667526 243.857819,181.209885 
	C226.424896,187.111099 215.142120,202.809448 214.930969,220.266251 
	C214.719040,237.786911 225.745239,253.802017 242.271667,259.977509 
	C249.873077,262.817963 249.878723,262.821198 253.776337,256.048828 
	C257.174561,250.144165 260.563477,244.234131 263.946045,238.320496 
	C266.057312,234.629425 268.149200,230.927246 270.729004,226.386581 
	C265.891602,226.386581 261.998535,226.386581 256.928467,226.386581 
	C259.699249,222.031357 261.868927,218.620972 264.400177,215.636246 
	C264.936676,215.760498 265.473175,215.884750 266.596863,216.599548 
z"/>
<path fill="#0C4B89" opacity="1.000000" stroke="none" 
	d="
M173.785690,312.570618 
	C173.350418,309.457275 172.927185,306.792847 172.503952,304.128387 
	C172.126328,304.175812 171.748703,304.223206 171.371078,304.270630 
	C169.270660,313.805420 167.157394,323.337433 165.073868,332.875916 
	C163.387634,340.595520 163.403503,340.598999 154.672348,339.664398 
	C157.820786,324.711884 160.902237,309.782013 164.233780,294.908142 
	C164.460220,293.897186 166.520004,292.732361 167.806290,292.629578 
	C171.599854,292.326416 175.433212,292.521332 180.093460,292.521332 
	C181.214310,303.604980 182.321701,314.555481 183.575104,326.949860 
	C187.095840,320.597260 190.003433,315.357269 192.904144,310.113525 
	C193.869766,308.367920 194.804779,306.605316 195.775803,304.862732 
	C203.949463,290.194427 200.304352,292.623596 218.034119,292.605713 
	C214.747269,308.538818 211.505478,324.253510 208.276596,339.905609 
	C204.738586,339.905609 201.779984,339.905609 198.325455,339.905609 
	C199.723648,333.695343 201.066284,327.760925 202.394638,321.823303 
	C203.689468,316.035614 204.969681,310.244690 205.183212,304.032013 
	C203.362091,307.290375 201.519196,310.536774 199.724380,313.809570 
	C196.048355,320.512634 192.410538,327.236664 188.733826,333.939362 
	C184.987152,340.769623 184.974991,340.762939 176.310913,339.607635 
	C175.479614,330.812866 174.638687,321.916168 173.785690,312.570618 
z"/>
<path fill="#0D4A89" opacity="1.000000" stroke="none" 
	d="
M302.702209,336.703674 
	C298.043701,340.767517 292.733582,342.412048 287.069275,339.475922 
	C281.262421,336.465912 280.519775,330.897186 280.928955,324.929993 
	C281.740814,313.089752 286.600555,305.493378 295.422241,304.655304 
	C299.850586,304.234589 304.497772,306.117126 309.442932,307.031464 
	C309.926819,304.906158 310.659973,301.688354 311.391907,298.470306 
	C312.087250,295.413239 312.781281,292.355896 313.511871,289.140320 
	C316.493500,289.140320 319.240448,289.140320 322.368713,289.140320 
	C318.708740,306.100769 315.105316,322.799103 311.227203,340.770355 
	C308.688873,339.912292 306.186188,339.066254 303.744934,337.592377 
	C303.743408,336.682953 303.680511,336.401428 303.617615,336.119873 
	C303.312500,336.314484 303.007355,336.509094 302.702209,336.703674 
M304.356415,313.336578 
	C299.887665,310.086823 295.922760,310.186096 293.480194,314.796814 
	C291.483154,318.566620 290.616425,323.166840 290.281036,327.479248 
	C290.132080,329.394104 292.145599,332.665039 293.864990,333.230652 
	C295.921783,333.907196 299.172882,332.995911 301.098572,331.631714 
	C306.164062,328.043121 307.480713,320.541199 304.356415,313.336578 
z"/>
<path fill="#0D4A89" opacity="1.000000" stroke="none" 
	d="
M254.139313,307.147766 
	C255.944351,306.346191 257.686829,305.331665 259.565216,304.779663 
	C268.084137,302.276428 275.067963,307.413025 274.180634,316.169312 
	C273.381805,324.052032 271.418640,331.816772 269.933594,339.824402 
	C266.832367,339.824402 264.072968,339.824402 260.821289,339.824402 
	C261.967316,334.041321 263.092926,328.419220 264.189514,322.791443 
	C264.506622,321.163940 265.176727,319.443512 264.905945,317.902588 
	C264.536041,315.797882 263.877930,312.582123 262.519196,312.082092 
	C260.421448,311.310089 256.704590,311.539398 255.329941,312.953430 
	C252.937042,315.414886 251.269470,318.943695 250.266846,322.313354 
	C248.572739,328.006866 247.634445,333.925262 246.349899,339.881134 
	C243.441101,339.881134 240.833801,339.881134 237.498810,339.881134 
	C239.947845,328.317291 242.368423,316.887817 244.955765,304.670898 
	C247.772888,305.060303 250.517197,305.439636 253.249695,306.373657 
	C253.334091,307.200775 253.430298,307.473236 253.526505,307.745697 
	C253.730789,307.546387 253.935059,307.347076 254.139313,307.147766 
z"/>
<path fill="#0F4D8A" opacity="1.000000" stroke="none" 
	d="
M406.960266,325.007782 
	C406.801147,325.062469 406.642029,325.117157 405.957825,324.776245 
	C398.290009,324.604980 391.147278,324.829315 384.004578,325.053650 
	C383.437439,330.480408 385.452423,333.619049 390.539886,333.938263 
	C394.571991,334.191223 398.663757,333.492981 402.919464,333.204193 
	C404.202576,337.332581 402.710846,339.645447 398.232483,340.062225 
	C397.243927,340.154236 396.266479,340.364532 395.283630,340.518677 
	C386.564453,341.886566 379.135223,338.939056 376.302948,332.988647 
	C372.910126,325.860565 375.422546,315.188965 381.884064,309.282745 
	C387.898712,303.784973 397.338654,302.381226 403.555939,306.379242 
	C409.979401,310.509949 409.562805,316.865173 408.031067,323.737183 
	C407.368469,324.449921 407.164368,324.728851 406.960266,325.007782 
M397.649902,311.319519 
	C390.295929,310.044525 386.740295,312.237122 385.433350,318.785583 
	C390.322296,318.785583 395.219727,318.785583 401.376862,318.785583 
	C400.146759,315.970093 399.232086,313.876587 397.649902,311.319519 
z"/>
<path fill="#0F4D8A" opacity="1.000000" stroke="none" 
	d="
M422.004578,325.053650 
	C421.415680,330.450745 423.459381,333.384918 428.536377,333.995697 
	C430.651917,334.250183 432.845764,334.103363 434.978821,333.888702 
	C436.891296,333.696228 438.769287,333.160431 440.779083,332.752441 
	C442.204498,337.333313 440.704224,339.641785 436.230133,340.062408 
	C435.241638,340.155334 434.264191,340.365082 433.281372,340.519226 
	C424.563812,341.886505 417.132751,338.937195 414.301819,332.986816 
	C410.908356,325.854065 413.420410,315.187256 419.884155,309.282776 
	C425.902588,303.785095 435.338989,302.382111 441.555878,306.379028 
	C447.980835,310.509735 447.560272,316.865784 446.031006,323.737122 
	C445.368530,324.449921 445.164429,324.728851 444.960327,325.007782 
	C444.801178,325.062500 444.642059,325.117188 443.957794,324.776245 
	C436.289948,324.604980 429.147278,324.829315 422.004578,325.053650 
M431.632751,310.817322 
	C426.673187,311.240967 424.372650,314.339020 422.897858,318.750031 
	C428.411896,318.750031 433.301605,318.750031 438.298187,318.750031 
	C438.840302,313.917419 437.561279,310.901642 431.632751,310.817322 
z"/>
<path fill="#0D4C8A" opacity="1.000000" stroke="none" 
	d="
M138.767899,295.014221 
	C138.496704,296.469696 138.225510,297.925171 137.890686,299.722168 
	C133.509933,299.722168 129.246780,299.722168 124.533401,299.722168 
	C121.580170,313.233551 118.685921,326.475128 115.765968,339.834259 
	C112.478844,339.834259 109.384369,339.834259 106.042572,339.834259 
	C108.881226,326.570679 111.656631,313.602600 114.541542,300.122864 
	C110.102493,300.122864 106.050827,300.122864 101.308495,300.122864 
	C101.738037,297.886108 102.062660,296.195679 102.916641,294.267487 
	C103.648170,294.042755 103.850319,294.055817 104.346283,294.354462 
	C116.016029,294.764771 127.391960,294.889496 138.767899,295.014221 
z"/>
<path fill="#0B4B89" opacity="1.000000" stroke="none" 
	d="
M93.615479,334.639893 
	C94.426712,336.304932 94.863243,337.830505 95.429939,339.811035 
	C85.538231,339.811035 76.468887,339.811035 66.850372,339.811035 
	C67.312469,337.250061 67.705650,334.728333 68.228348,332.233734 
	C70.440308,321.677307 72.720779,311.135223 74.917755,300.575714 
	C76.697281,292.022675 76.660240,292.014954 85.908401,292.854431 
	C83.122284,306.251740 80.344368,319.609619 77.495621,333.308105 
	C83.233910,333.742645 88.237335,334.121552 93.615479,334.639893 
z"/>
<path fill="#0E4C8A" opacity="1.000000" stroke="none" 
	d="
M345.957916,311.178650 
	C340.025513,310.409912 337.584717,312.966156 337.113861,318.422546 
	C336.816162,321.872467 335.558319,325.231537 335.141846,328.680969 
	C334.505890,333.948120 337.190582,335.811737 342.235931,333.803162 
	C342.652496,338.274536 340.514923,340.601837 336.196503,340.812775 
	C330.286438,341.101471 326.093933,338.135529 326.127136,332.911194 
	C326.157318,328.159943 327.361328,323.409973 328.127228,318.672302 
	C328.469818,316.553375 329.006561,314.465851 329.532074,312.003967 
	C327.589600,311.724670 325.855103,311.475281 323.607758,311.152161 
	C323.840546,309.212952 324.066498,307.330780 324.322144,305.201294 
	C326.692902,305.009644 328.790497,304.840088 330.828644,304.675323 
	C333.536530,296.669495 334.497101,295.869720 341.860535,295.861176 
	C341.376801,298.758545 340.903961,301.590668 340.390472,304.666199 
	C343.096832,304.834778 345.519592,304.985687 348.494934,305.170990 
	C347.676270,307.336395 346.989624,309.152496 345.957916,311.178650 
z"/>
<path fill="#0D4A89" opacity="1.000000" stroke="none" 
	d="
M139.897888,314.752960 
	C140.960526,309.614166 141.975861,304.895325 142.958679,300.169708 
	C144.665039,291.965149 144.656601,291.963409 154.234695,292.992645 
	C150.987259,308.578705 147.757324,324.080811 144.481216,339.804443 
	C141.138809,339.804443 138.074020,339.804443 134.675598,339.804443 
	C136.431732,331.420929 138.133835,323.295410 139.897888,314.752960 
z"/>
<path fill="#0F4B8A" opacity="1.000000" stroke="none" 
	d="
M349.703918,329.468262 
	C351.403229,321.098572 353.032715,313.146118 354.684326,305.085571 
	C357.440735,305.085571 359.902466,305.085571 362.764343,305.085571 
	C362.587128,306.351990 362.416321,307.572449 362.141724,309.534698 
	C366.632416,306.622223 370.127075,302.699036 375.817261,304.812592 
	C375.227722,307.470093 374.661072,310.024323 374.113098,312.494354 
	C364.139404,313.536804 361.535522,315.887421 359.419312,325.662354 
	C358.405457,330.345367 357.473480,335.046112 356.475861,339.876953 
	C353.549957,339.876953 350.936859,339.876953 347.641083,339.876953 
	C348.310150,336.522736 348.972107,333.204132 349.703918,329.468262 
z"/>
<path fill="#0D4A89" opacity="1.000000" stroke="none" 
	d="
M232.765259,314.896606 
	C230.921173,323.393463 229.181320,331.483704 227.392624,339.801147 
	C224.458313,339.801147 221.739044,339.801147 218.471725,339.801147 
	C220.953415,328.148590 223.391434,316.701050 225.857788,305.120544 
	C228.869751,305.120544 231.627213,305.120544 234.713516,305.120544 
	C234.064835,308.416443 233.467163,311.453217 232.765259,314.896606 
z"/>
<path fill="#1C518B" opacity="1.000000" stroke="none" 
	d="
M236.211487,290.974426 
	C238.062073,298.197388 237.416290,298.726379 227.487549,297.957977 
	C228.027023,295.595734 228.545395,293.325928 229.103714,290.881195 
	C231.569519,290.881195 233.694244,290.881195 236.211487,290.974426 
z"/>
<path fill="#00237B" opacity="1.000000" stroke="none" 
	d="
M104.052467,294.068878 
	C103.850319,294.055817 103.648170,294.042755 103.143967,293.996490 
	C103.255234,293.532501 103.670799,292.723541 104.081512,292.726013 
	C115.672470,292.795227 127.262932,292.946320 138.428574,293.544189 
	C126.686607,294.025879 115.369537,294.047394 104.052467,294.068878 
z"/>
<path fill="#1C518B" opacity="1.000000" stroke="none" 
	d="
M104.346283,294.354462 
	C115.369537,294.047394 126.686607,294.025879 138.467651,294.004700 
	C138.953537,294.181244 138.975449,294.357391 138.882629,294.773865 
	C127.391960,294.889496 116.016029,294.764771 104.346283,294.354462 
z"/>
<path fill="#00197C" opacity="1.000000" stroke="none" 
	d="
M422.471100,325.099823 
	C429.147278,324.829315 436.289948,324.604980 443.722595,324.684692 
	C436.987549,325.041168 429.962585,325.093567 422.471100,325.099823 
z"/>
<path fill="#00197C" opacity="1.000000" stroke="none" 
	d="
M384.471100,325.099823 
	C391.147278,324.829315 398.290009,324.604980 405.722626,324.684692 
	C398.987579,325.041168 391.962585,325.093597 384.471100,325.099823 
z"/>
<path fill="#00197C" opacity="1.000000" stroke="none" 
	d="
M407.275330,325.038757 
	C407.164368,324.728851 407.368469,324.449921 407.825378,324.089081 
	C407.915558,324.361359 407.752960,324.715515 407.275330,325.038757 
z"/>
<path fill="#00197C" opacity="1.000000" stroke="none" 
	d="
M445.275360,325.038757 
	C445.164429,324.728851 445.368530,324.449921 445.825378,324.089050 
	C445.915558,324.361328 445.752960,324.715515 445.275360,325.038757 
z"/>
<path fill="#F9FAFB" opacity="1.000000" stroke="none" 
	d="
M232.014877,214.957703 
	C233.356384,212.165451 234.547424,209.288193 236.067734,206.596954 
	C240.565613,198.634857 245.350967,190.831070 249.687607,182.784134 
	C251.265610,179.856064 253.193756,178.883545 256.353119,178.848679 
	C275.556976,178.636795 293.187164,192.303497 297.634399,211.011566 
	C303.254242,234.652618 287.507843,258.079681 263.306671,262.138428 
	C261.416534,262.455414 259.575836,263.066986 256.998840,263.723297 
	C257.491486,262.224579 257.685486,260.993561 258.261841,259.979950 
	C264.096893,249.718292 269.868530,239.415451 276.009460,229.338364 
	C276.934174,227.820923 279.625336,226.711426 281.566925,226.601013 
	C288.914917,226.183121 293.629547,222.670227 295.092804,215.748047 
	C295.132874,215.558395 294.234650,215.170395 292.921448,214.890167 
	C282.725494,215.007141 273.382019,215.108856 264.038574,215.210587 
	C261.868927,218.620972 259.699249,222.031357 256.928467,226.386581 
	C261.998535,226.386581 265.891602,226.386581 270.729004,226.386581 
	C268.149200,230.927246 266.057312,234.629425 263.946045,238.320496 
	C260.563477,244.234131 257.174561,250.144165 253.776337,256.048828 
	C249.878723,262.821198 249.873077,262.817963 242.271667,259.977509 
	C225.745239,253.802017 214.719040,237.786911 214.930969,220.266251 
	C215.142120,202.809448 226.424896,187.111099 243.857819,181.209885 
	C235.561859,195.667526 227.705475,209.359100 219.770844,223.409531 
	C219.692612,223.768372 219.716034,223.801102 219.440079,224.016144 
	C219.674026,224.935150 220.176071,226.246185 220.694977,226.252869 
	C229.902786,226.371826 239.112839,226.355179 248.321640,226.277634 
	C248.970657,226.272156 249.613785,225.564926 250.285309,225.212173 
	C250.310989,225.240326 250.386917,225.247025 250.386917,225.247025 
	C251.924408,222.737808 253.461914,220.228592 255.331665,217.082382 
	C254.870071,215.924530 254.082077,214.962479 253.281479,214.951874 
	C246.193878,214.857941 239.104050,214.932755 232.014877,214.957703 
z"/>
<path fill="#023683" opacity="1.000000" stroke="none" 
	d="
M232.094040,215.359711 
	C239.104050,214.932755 246.193878,214.857941 253.281479,214.951874 
	C254.082077,214.962479 254.870071,215.924530 255.369690,216.736115 
	C248.928101,217.019882 242.778915,217.091690 236.634674,216.949417 
	C235.139145,216.914795 233.659927,216.176483 232.094040,215.359711 
z"/>
<path fill="#1C518B" opacity="1.000000" stroke="none" 
	d="
M219.683029,223.750549 
	C229.131378,223.773392 238.589447,223.799377 248.046967,223.885300 
	C248.731461,223.891525 249.412003,224.333908 250.240646,224.910278 
	C250.386917,225.247025 250.310989,225.240326 249.796082,225.144348 
	C241.127563,225.032913 232.972824,225.084045 224.821213,224.947968 
	C223.113571,224.919464 221.417465,224.201401 219.716034,223.801102 
	C219.716034,223.801102 219.692612,223.768372 219.683029,223.750549 
z"/>
<path fill="#023683" opacity="1.000000" stroke="none" 
	d="
M264.219360,215.423416 
	C273.382019,215.108856 282.725494,215.007141 292.531525,214.983948 
	C292.994110,215.062469 293.002136,215.539383 292.531067,215.772141 
	C283.376587,216.006271 274.693115,216.007629 266.009674,216.009003 
	C265.473175,215.884750 264.936676,215.760498 264.219360,215.423416 
z"/>
<path fill="#1C518B" opacity="1.000000" stroke="none" 
	d="
M266.303284,216.304276 
	C274.693115,216.007629 283.376587,216.006271 292.528137,216.010590 
	C289.297668,216.342575 285.602417,216.885605 281.899689,216.942459 
	C276.801697,217.020721 271.698059,216.731400 266.303284,216.304276 
z"/>
<path fill="#F7F8FA" opacity="1.000000" stroke="none" 
	d="
M304.598328,313.660461 
	C307.480713,320.541199 306.164062,328.043121 301.098572,331.631714 
	C299.172882,332.995911 295.921783,333.907196 293.864990,333.230652 
	C292.145599,332.665039 290.132080,329.394104 290.281036,327.479248 
	C290.616425,323.166840 291.483154,318.566620 293.480194,314.796814 
	C295.922760,310.186096 299.887665,310.086823 304.598328,313.660461 
z"/>
<path fill="#FFFFFF" opacity="1.000000" stroke="none" 
	d="
M302.916748,336.905579 
	C303.007355,336.509094 303.312500,336.314484 303.617615,336.119873 
	C303.680511,336.401428 303.743408,336.682953 303.695618,337.223938 
	C303.433655,337.358093 303.282471,337.232788 302.916748,336.905579 
z"/>
<path fill="#FFFFFF" opacity="1.000000" stroke="none" 
	d="
M253.968628,306.979980 
	C253.935059,307.347076 253.730789,307.546387 253.526505,307.745697 
	C253.430298,307.473236 253.334091,307.200775 253.333115,306.718201 
	C253.428345,306.508057 253.797943,306.812225 253.968628,306.979980 
z"/>
<path fill="#F7F8FA" opacity="1.000000" stroke="none" 
	d="
M397.983643,311.551331 
	C399.232086,313.876587 400.146759,315.970093 401.376862,318.785583 
	C395.219727,318.785583 390.322296,318.785583 385.433350,318.785583 
	C386.740295,312.237122 390.295929,310.044525 397.983643,311.551331 
z"/>
<path fill="#F7F8FA" opacity="1.000000" stroke="none" 
	d="
M432.040833,310.791748 
	C437.561279,310.901642 438.840302,313.917419 438.298187,318.750031 
	C433.301605,318.750031 428.411896,318.750031 422.897858,318.750031 
	C424.372650,314.339020 426.673187,311.240967 432.040833,310.791748 
z"/>
<path fill="#00237B" opacity="1.000000" stroke="none" 
	d="
M219.440079,224.016144 
	C221.417465,224.201401 223.113571,224.919464 224.821213,224.947968 
	C232.972824,225.084045 241.127563,225.032913 249.770416,225.116180 
	C249.613785,225.564926 248.970657,226.272156 248.321640,226.277634 
	C239.112839,226.355179 229.902786,226.371826 220.694977,226.252869 
	C220.176071,226.246185 219.674026,224.935150 219.440079,224.016144 
z"/>
</svg>